#!OML:ASF E:\pregnant2\Project 1\Capture day 1\Session 1\pregnant2.ASF
:FULLY-SPECIFIED
:DEGREES
1579
root 4.53639 17.2761 13.0076 -327.632 -20.3481 0.486106
lowerback -16.9234 -2.65321 -5.35709
upperback -18.1013 -3.2842 2.53417
thorax -10.1323 -1.01099 5.53602
lowerneck 2.49054 -15.6962 -23.3764
upperneck 39.2932 -30.761 14.9106
head 23.5167 -15.4368 4.83167
rclavicle -3.67255e-014 -8.94531e-015
rhumerus -53.7832 47.3938 -96.2398
rradius 43.3815
rwrist 12.1772
rhand -7.7566 -6.99233
rfingers 7.12502
rthumb 18.143 -36.1662
lclavicle -3.67255e-014 -8.94531e-015
lhumerus -56.102 -5.03332 79.644
lradius 59.7108
lwrist 11.4035
lhand 1.29888 30.6652
lfingers 7.12502
lthumb 26.8339 58.7812
rfemur -47.9807 16.9063 9.15797
rtibia 32.1119
rfoot -15.9631 -20.823
rtoes 2.15294
lfemur -40.9681 -9.35932 -18.7254
ltibia 28.4299
lfoot -11.563 20.5874
ltoes -18.5996
1580
root 4.53714 17.2755 13.0029 -327.637 -20.3252 0.49728
lowerback -16.8816 -2.67987 -5.37268
upperback -18.0937 -3.31604 2.60792
thorax -10.137 -1.0194 5.62513
lowerneck 2.58267 -15.6892 -23.4276
upperneck 39.3563 -30.7796 14.877
head 23.5573 -15.462 4.82833
rclavicle -6.99225e-014 -2.18663e-014
rhumerus -53.5102 47.4224 -96.0027
rradius 43.2794
rwrist 11.0051
rhand -7.41061 -7.48913
rfingers 7.12502
rthumb 18.4759 -36.6317
lclavicle -6.99225e-014 -2.18663e-014
lhumerus -55.8191 -4.34155 79.1499
lradius 59.3374
lwrist 13.2967
lhand 0.841675 31.0126
lfingers 7.12502
lthumb 26.3963 59.195
rfemur -47.9973 16.8966 9.14406
rtibia 32.1149
rfoot -15.986 -20.8182
rtoes 2.29226
lfemur -40.9855 -9.35168 -18.7357
ltibia 28.4322
lfoot -11.5566 20.5563
ltoes -18.6143
1581
root 4.53769 17.2755 12.9975 -327.611 -20.2858 0.498234
lowerback -16.8751 -2.6867 -5.36673
upperback -18.0846 -3.32217 2.65868
thorax -10.1261 -1.01954 5.67728
lowerneck 2.6331 -15.7007 -23.4264
upperneck 39.4637 -30.8254 14.8119
head 23.6316 -15.4877 4.78954
rclavicle -6.71892e-014 -5.56597e-015
rhumerus -53.2536 47.4001 -95.7774
rradius 43.191
rwrist 9.87418
rhand -7.09634 -8.12209
rfingers 7.12502
rthumb 18.7782 -37.2357
lclavicle -6.71892e-014 -5.56597e-015
lhumerus -55.4952 -3.64939 78.6361
lradius 58.9541
lwrist 15.0983
lhand 0.369684 31.5065
lfingers 7.12502
lthumb 25.9444 59.7559
rfemur -48.0421 16.9102 9.12449
rtibia 32.1106
rfoot -15.9922 -20.8721
rtoes 2.31292
lfemur -41.0454 -9.37884 -18.7021
ltibia 28.4391
lfoot -11.533 20.5503
ltoes -18.6737
1582
root 4.53816 17.2756 12.9924 -327.587 -20.2343 0.499632
lowerback -16.8757 -2.68971 -5.33977
upperback -18.064 -3.32503 2.69099
thorax -10.0984 -1.02273 5.6964
lowerneck 2.67502 -15.7164 -23.3928
upperneck 39.5527 -30.874 14.7562
head 23.6845 -15.5079 4.7486
rclavicle 2.09718e-014 2.74323e-014
rhumerus -52.9993 47.4421 -95.634
rradius 43.0731
rwrist 8.84736
rhand -6.98431 -8.83826
rfingers 7.12502
rthumb 18.8859 -37.9414
lclavicle 2.09718e-014 2.74323e-014
lhumerus -55.1132 -2.98811 78.1048
lradius 58.4856
lwrist 16.8719
lhand -0.194887 32.2209
lfingers 7.12502
lthumb 25.4037 60.5484
rfemur -48.0733 16.8779 9.13674
rtibia 32.1124
rfoot -15.9915 -20.8831
rtoes 2.36667
lfemur -41.0985 -9.37662 -18.6812
ltibia 28.4408
lfoot -11.5348 20.503
ltoes -18.6513
1583
root 4.53911 17.2756 12.9877 -327.591 -20.191 0.497122
lowerback -16.8404 -2.70003 -5.32871
upperback -18.0479 -3.33742 2.74339
thorax -10.0932 -1.02633 5.74789
lowerneck 2.76053 -15.7219 -23.419
upperneck 39.6247 -30.9154 14.7182
head 23.7355 -15.5374 4.73134
rclavicle -5.09883e-014 1.59028e-015
rhumerus -52.86 47.4765 -95.5218
rradius 43.0307
rwrist 8.04594
rhand -7.5183 -9.2185
rfingers 7.12502
rthumb 18.3723 -38.3709
lclavicle -5.09883e-014 1.59028e-015
lhumerus -54.7472 -2.25482 77.573
lradius 58.0348
lwrist 18.7474
lhand -0.727568 33.0695
lfingers 7.12502
lthumb 24.8933 61.4686
rfemur -48.0736 16.8659 9.15185
rtibia 32.1095
rfoot -15.9524 -20.9169
rtoes 2.27279
lfemur -41.1145 -9.38674 -18.6644
ltibia 28.4443
lfoot -11.5063 20.4873
ltoes -18.7109
1584
root 4.54025 17.2757 12.9821 -327.593 -20.1595 0.510076
lowerback -16.8022 -2.71139 -5.33658
upperback -18.0276 -3.3495 2.794
thorax -10.0841 -1.02792 5.80796
lowerneck 2.80565 -15.7141 -23.4066
upperneck 39.6869 -30.9171 14.6813
head 23.758 -15.5421 4.71888
rclavicle 7.55382e-015 0
rhumerus -52.6701 47.527 -95.3982
rradius 42.9477
rwrist 7.6061
rhand -7.30255 -9.95228
rfingers 7.12502
rthumb 18.5798 -39.085
lclavicle 7.55382e-015 0
lhumerus -54.4027 -1.5862 77.1523
lradius 57.5768
lwrist 20.6122
lhand -1.85471 33.3733
lfingers 7.12502
lthumb 23.8127 61.9175
rfemur -48.0929 16.8621 9.13761
rtibia 32.1167
rfoot -15.9551 -20.9501
rtoes 2.34193
lfemur -41.1457 -9.41 -18.6532
ltibia 28.4413
lfoot -11.5027 20.4665
ltoes -18.6953
1585
root 4.54069 17.2756 12.9771 -327.576 -20.1237 0.518382
lowerback -16.8018 -2.71681 -5.32891
upperback -18.0139 -3.35432 2.82811
thorax -10.0651 -1.02935 5.84023
lowerneck 2.83588 -15.7245 -23.3443
upperneck 39.7732 -30.9319 14.5956
head 23.7681 -15.5448 4.668
rclavicle -1.98785e-016 -7.95139e-016
rhumerus -52.4713 47.5022 -95.2599
rradius 42.8236
rwrist 7.59215
rhand -7.51615 -10.2541
rfingers 7.12502
rthumb 18.3744 -39.4063
lclavicle -1.98785e-016 -7.95139e-016
lhumerus -54.0341 -0.866921 76.6537
lradius 56.9912
lwrist 22.3626
lhand -2.89103 33.161
lfingers 7.12502
lthumb 22.8185 61.8312
rfemur -48.1352 16.8638 9.11406
rtibia 32.1143
rfoot -15.9309 -20.9866
rtoes 2.32004
lfemur -41.1906 -9.39295 -18.6541
ltibia 28.444
lfoot -11.4867 20.422
ltoes -18.6787
1586
root 4.54136 17.2754 12.9705 -327.575 -20.0993 0.544851
lowerback -16.7701 -2.73079 -5.35544
upperback -17.9974 -3.36854 2.87027
thorax -10.057 -1.03049 5.90115
lowerneck 2.82534 -15.7324 -23.3022
upperneck 39.8916 -30.9382 14.494
head 23.8206 -15.545 4.61094
rclavicle -7.65321e-015 -1.90833e-014
rhumerus -52.1684 47.4209 -95.0046
rradius 42.6507
rwrist 8.09906
rhand -8.01322 -10.3544
rfingers 7.12502
rthumb 17.8961 -39.551
lclavicle -7.65321e-015 -1.90833e-014
lhumerus -53.6574 -0.139133 76.1817
lradius 56.4912
lwrist 23.9599
lhand -4.07297 33.936
lfingers 7.12502
lthumb 21.6839 62.7416
rfemur -48.1719 16.8669 9.07688
rtibia 32.1188
rfoot -15.9324 -21.0514
rtoes 2.2882
lfemur -41.2308 -9.40349 -18.6603
ltibia 28.4397
lfoot -11.457 20.3944
ltoes -18.7238
1587
root 4.54296 17.2754 12.9643 -327.559 -20.0436 0.531255
lowerback -16.7445 -2.73379 -5.32872
upperback -17.9842 -3.37172 2.92877
thorax -10.0516 -1.03068 5.95121
lowerneck 2.86904 -15.7249 -23.2875
upperneck 39.9527 -30.9129 14.4217
head 23.8086 -15.5392 4.58768
rclavicle -3.8266e-014 -3.85642e-014
rhumerus -51.7662 47.2305 -94.571
rradius 42.4592
rwrist 9.00974
rhand -8.17298 -10.3887
rfingers 7.12502
rthumb 17.7424 -39.5993
lclavicle -3.8266e-014 -3.85642e-014
lhumerus -53.2217 0.585384 75.7454
lradius 55.9588
lwrist 25.513
lhand -5.08986 35.1973
lfingers 7.12502
lthumb 20.7071 64.1126
rfemur -48.1971 16.8551 9.09552
rtibia 32.1179
rfoot -15.9379 -21.0665
rtoes 2.39892
lfemur -41.2799 -9.41986 -18.6149
ltibia 28.4424
lfoot -11.4612 20.3561
ltoes -18.5912
1588
root 4.54414 17.2763 12.9598 -327.548 -19.9977 0.539034
lowerback -16.7456 -2.73919 -5.30121
upperback -17.9736 -3.37798 2.97119
thorax -10.0353 -1.03443 5.98152
lowerneck 2.887 -15.7011 -23.2897
upperneck 40.0503 -30.8684 14.3468
head 23.8404 -15.5289 4.57089
rclavicle -2.62396e-014 2.26615e-014
rhumerus -51.2231 46.904 -94.0281
rradius 42.1549
rwrist 10.0288
rhand -8.66145 -10.2635
rfingers 7.12502
rthumb 17.2723 -39.5159
lclavicle -2.62396e-014 2.26615e-014
lhumerus -52.8481 1.21294 75.4306
lradius 55.331
lwrist 26.7771
lhand -6.90497 35.8564
lfingers 7.12502
lthumb 18.9622 64.9521
rfemur -48.2112 16.8286 9.09891
rtibia 32.1194
rfoot -15.9419 -21.0895
rtoes 2.40538
lfemur -41.3171 -9.45505 -18.5926
ltibia 28.4399
lfoot -11.4338 20.3496
ltoes -18.6369
